<svg width="92" height="95" viewBox="0 0 92 95" fill="none" xmlns="http://www.w3.org/2000/svg">
<g id="Group 6665">
<path id="Ellipse 2" d="M22.0973 41.1379C6.01568 29.4865 28.5879 93.8699 46.4226 70.9918C64.2573 48.1138 48.4265 32.1513 65.2016 37.3716C81.9767 42.5919 46.0458 -0.124676 41.757 17.5959C37.4681 35.3165 38.1789 52.7894 22.0973 41.1379Z" fill="url(#paint0_linear_6_3343)"/>
<path id="Ellipse 3" d="M29.0468 63.5592C13.8047 76.2571 58.3443 89.0021 63.9002 47.3909C69.456 5.77967 40.9588 5.35962 36.1401 20.8288C31.3214 36.298 15.864 28.4399 11.2283 38.6473C6.59256 48.8548 44.2889 50.8613 29.0468 63.5592Z" fill="url(#paint1_linear_6_3343)"/>
<path id="Ellipse 4" d="M66.3146 40.9163C86.1433 41.5328 61.2833 2.44073 29.5125 29.8811C-2.25833 57.3215 18.7804 76.5476 32.651 68.1737C46.5215 59.7997 52.8696 75.9361 63.1114 71.3768C73.3532 66.8175 46.4859 40.2999 66.3146 40.9163Z" fill="url(#paint2_linear_6_3343)"/>
</g>
<defs>
<linearGradient id="paint0_linear_6_3343" x1="35.1524" y1="13.9848" x2="41.3273" y2="84.655" gradientUnits="userSpaceOnUse">
<stop stop-color="#3646D9"/>
<stop offset="1" stop-color="#C4C4C4" stop-opacity="0"/>
</linearGradient>
<linearGradient id="paint1_linear_6_3343" x1="9.76074" y1="45.2301" x2="70.4639" y2="55.3069" gradientUnits="userSpaceOnUse">
<stop stop-color="#3646D9"/>
<stop offset="1" stop-color="#C4C4C4" stop-opacity="0"/>
</linearGradient>
<linearGradient id="paint2_linear_6_3343" x1="68.5778" y1="67.4265" x2="29.8558" y2="19.6036" gradientUnits="userSpaceOnUse">
<stop stop-color="#3646D9"/>
<stop offset="1" stop-color="#C4C4C4" stop-opacity="0"/>
</linearGradient>
</defs>
</svg>
